<svg viewBox="0 0 30 30" xmlns="http://www.w3.org/2000/svg" xmlns:xlink="http://www.w3.org/1999/xlink" width="30.000000" height="30.000000" fill="none">
	<rect id="Frame 432" width="30.000000" height="30.000000" x="0.000000" y="0.000000" fill="rgb(255,255,255)" fill-opacity="0" />
	<path id="Union" d="M9.81395 6.41147C9.81395 5.863 9.89334 5.33359 10.041 4.83471L9.06 4.83471L9.06 10.4506C9.1738 10.4674 9.28713 10.4924 9.39999 10.5257C9.55867 10.5726 9.70973 10.6339 9.85317 10.7096L9.8532 10.7097C9.9232 10.7466 9.99139 10.787 10.0578 10.8308C10.0946 10.781 10.1354 10.7337 10.1801 10.6891C10.239 10.6301 10.3025 10.5779 10.3706 10.5325C10.4353 10.4894 10.5042 10.4523 10.5772 10.4215C10.6515 10.39 10.7274 10.3661 10.8049 10.3497L10.8049 10.3497C10.8894 10.3319 10.9757 10.3229 11.0639 10.3229L11.4407 10.3229C10.4383 9.3377 9.81395 7.94952 9.81395 6.41147ZM10.7472 3.33471C11.6976 1.92403 13.2835 1 15.0793 1C16.8752 1 18.4611 1.92403 19.4114 3.33471L21.2872 3.33471C21.5769 3.33471 21.8249 3.40026 22.0312 3.53136L22.0313 3.53139C22.1092 3.58087 22.1811 3.63967 22.2471 3.70782C22.3001 3.76257 22.3472 3.82127 22.3882 3.88389C22.5286 4.09807 22.5988 4.35824 22.5988 4.66442L22.5988 10.5762C22.608 10.5811 22.6173 10.5861 22.6265 10.5912C22.7663 10.6679 22.8961 10.7565 23.0159 10.8571L23.0159 10.8571C23.1335 10.956 23.2414 11.0664 23.3396 11.1883C23.4269 11.2966 23.5038 11.4107 23.5702 11.5306C23.6602 11.693 23.7312 11.8659 23.783 12.0495L25.1159 16.767C25.1608 16.926 25.1895 17.0863 25.202 17.2479C25.2068 17.3101 25.2092 17.3724 25.2092 17.435C25.2092 17.5359 25.2029 17.6373 25.1904 17.7392C25.1725 17.8856 25.1422 18.0282 25.0996 18.167C25.0499 18.3293 24.9834 18.4865 24.9 18.6384C24.8167 18.7904 24.72 18.931 24.61 19.0602C24.5158 19.1708 24.4118 19.273 24.2981 19.3669C24.1698 19.4727 24.0338 19.5641 23.89 19.6409C23.7471 19.7172 23.5965 19.7792 23.4383 19.8269C23.2557 19.8818 23.0717 19.9151 22.8864 19.9265L22.8864 19.9265C22.7496 19.9349 22.6121 19.9315 22.4738 19.9162C22.3182 19.899 22.1671 19.8673 22.0205 19.8213C21.8713 19.7745 21.7267 19.7127 21.5869 19.6361C21.447 19.5594 21.3172 19.4707 21.1974 19.3701L21.1974 19.37C21.0798 19.2712 20.9719 19.1609 20.8737 19.039C20.7865 18.9306 20.7096 18.8165 20.6431 18.6966C20.5531 18.5343 20.4822 18.3613 20.4303 18.1778L20.3447 17.8748L20.3447 18.7285C20.3447 18.8167 20.3358 18.9031 20.3179 18.9876C20.3015 19.0651 20.2776 19.141 20.2462 19.2153C20.2171 19.284 20.1826 19.3491 20.1426 19.4106C20.166 19.4549 20.1875 19.5004 20.2073 19.547C20.2504 19.649 20.2834 19.7531 20.3063 19.8595C20.3321 19.9797 20.3451 20.1027 20.3451 20.2285L20.3451 26.384C20.3451 26.5098 20.3321 26.6328 20.3063 26.753L20.3063 26.7531C20.2834 26.8594 20.2504 26.9635 20.2072 27.0654C20.1645 27.1665 20.1133 27.2619 20.0537 27.3517C19.9897 27.4481 19.916 27.538 19.8325 27.6215C19.7491 27.7049 19.6591 27.7787 19.5627 27.8427L19.5626 27.8427C19.4729 27.9023 19.3775 27.9535 19.2765 27.9962C19.1745 28.0393 19.0704 28.0723 18.964 28.0952C18.8438 28.1211 18.7209 28.134 18.5951 28.134L16.0797 28.134C15.9539 28.134 15.8309 28.1211 15.7107 28.0952C15.6044 28.0723 15.5003 28.0393 15.3983 27.9962C15.2973 27.9535 15.2018 27.9023 15.112 27.8427C15.1012 27.8355 15.0905 27.8282 15.0798 27.8207C15.0692 27.8282 15.0584 27.8355 15.0476 27.8427C14.9578 27.9023 14.8624 27.9535 14.7614 27.9962C14.6594 28.0393 14.5552 28.0723 14.4489 28.0952C14.3287 28.1211 14.2057 28.134 14.0799 28.134L11.5646 28.134C11.4388 28.134 11.3158 28.1211 11.1956 28.0952C11.0893 28.0723 10.9851 28.0393 10.8832 27.9962C10.7821 27.9535 10.6867 27.9023 10.5969 27.8427C10.5005 27.7787 10.4106 27.7049 10.3271 27.6215C10.2437 27.538 10.17 27.4481 10.106 27.3518L10.1059 27.3517L10.1059 27.3516C10.0463 27.2618 9.99511 27.1665 9.95239 27.0654C9.90927 26.9635 9.87626 26.8594 9.85338 26.753L9.85337 26.753L9.85336 26.753C9.82749 26.6328 9.81456 26.5098 9.81456 26.384L9.81456 20.2285C9.81456 20.1027 9.8275 19.9797 9.85337 19.8595L9.85337 19.8595L9.85339 19.8594C9.87627 19.7531 9.90927 19.649 9.95239 19.547C9.97202 19.5006 9.99343 19.4554 10.0166 19.4114C9.97639 19.3497 9.94168 19.2843 9.91249 19.2153C9.88105 19.141 9.85714 19.0651 9.84074 18.9876C9.82288 18.9031 9.81395 18.8167 9.81395 18.7285L9.81395 18.1895L9.7829 18.3015C9.73201 18.4851 9.66202 18.6582 9.57293 18.8208L9.5729 18.8209C9.50698 18.9413 9.4306 19.0559 9.34377 19.1648C9.24623 19.2872 9.13894 19.398 9.02189 19.4974C8.90258 19.5987 8.77314 19.6881 8.63357 19.7655C8.49399 19.843 8.34966 19.9055 8.20056 19.9531C8.05429 19.9998 7.90345 20.0322 7.74802 20.0502C7.60964 20.0662 7.47193 20.0704 7.33489 20.0626C7.14972 20.0521 6.96579 20.0199 6.78309 19.9659C6.6244 19.919 6.47333 19.8577 6.32987 19.782C6.18592 19.706 6.04964 19.6155 5.92104 19.5104C5.80673 19.4171 5.70219 19.3153 5.60741 19.2052C5.49679 19.0766 5.39947 18.9366 5.31545 18.7852C5.23144 18.6338 5.16416 18.4771 5.11363 18.3153L5.11362 18.3152C5.07032 18.1765 5.03931 18.034 5.0206 17.8876C5.00707 17.7817 5.00031 17.6764 5.00031 17.5715C5.00031 17.5132 5.0024 17.455 5.00658 17.397C5.01824 17.2352 5.04618 17.0746 5.09038 16.9151L6.40018 12.1902C6.45107 12.0066 6.52105 11.8335 6.61014 11.6708L6.61015 11.6708L6.61017 11.6708C6.67609 11.5504 6.75247 11.4357 6.83931 11.3268C6.93686 11.2045 7.04415 11.0936 7.1612 10.9942C7.28051 10.8929 7.40995 10.8036 7.54951 10.7261C7.55297 10.7242 7.55646 10.7223 7.56 10.7203L7.56 4.66442C7.56 4.35824 7.63018 4.09807 7.77055 3.88389C7.8116 3.82127 7.85864 3.76257 7.91168 3.70782C7.9777 3.63966 8.04966 3.58084 8.12754 3.53136C8.3339 3.40026 8.5819 3.33471 8.87154 3.33471L10.7472 3.33471ZM20.1177 4.83471C20.2653 5.33359 20.3447 5.863 20.3447 6.41147C20.3447 7.94952 19.7204 9.3377 18.718 10.3229L19.0947 10.3229C19.183 10.3229 19.2693 10.3319 19.3538 10.3497L19.3538 10.3497C19.4313 10.3661 19.5072 10.39 19.5815 10.4215C19.6545 10.4523 19.7233 10.4894 19.7881 10.5325L19.7881 10.5326C19.8561 10.5779 19.9196 10.6301 19.9786 10.6891C20.0017 10.7121 20.0237 10.7359 20.0447 10.7604C20.1341 10.6958 20.2269 10.6379 20.3233 10.5864C20.4662 10.51 20.6168 10.448 20.7751 10.4004C20.8825 10.368 20.9904 10.3432 21.0988 10.3259L21.0988 4.83471L20.1177 4.83471ZM15.0857 11.8229L15.0793 11.8229L15.073 11.8229L11.3139 11.8229L11.3139 18.4785L11.5492 18.4785C11.5543 18.4785 11.5594 18.4785 11.5646 18.4785L14.0799 18.4785L14.0954 18.4785L16.0643 18.4785C16.0694 18.4785 16.0746 18.4785 16.0797 18.4785L18.5951 18.4785L18.6105 18.4785L18.8447 18.4785L18.8447 11.8229L15.0857 11.8229ZM15.0793 2.5C12.9998 2.5 11.3139 4.25122 11.3139 6.41147C11.3139 6.55081 11.321 6.68845 11.3346 6.82403C11.5349 5.44792 13.1626 4.37503 15.1409 4.37503C16.9206 4.37503 18.4165 5.24334 18.8447 6.41958L18.8447 6.41147C18.8447 4.25122 17.1589 2.5 15.0793 2.5ZM12.0234 8.69719C12.7062 9.68056 13.8181 10.3211 15.074 10.3229L15.0846 10.3229C16.2014 10.3213 17.2043 9.81467 17.8929 9.01105C17.197 9.52564 16.2212 9.84562 15.1409 9.84562C13.855 9.84562 12.7173 9.39236 12.0234 8.69719ZM15.1409 5.87503C13.8557 5.87503 12.8139 6.42809 12.8139 7.11032C12.8139 7.79256 13.8557 8.34562 15.1409 8.34562C16.426 8.34562 17.4678 7.79256 17.4678 7.11032C17.4678 6.42809 16.426 5.87503 15.1409 5.87503ZM18.6012 19.9785L16.0736 19.9785C16.0414 19.9792 16.0114 19.9853 15.9837 19.9968C15.9543 20.009 15.9273 20.0273 15.9029 20.0517C15.8785 20.0761 15.8602 20.103 15.848 20.1325C15.8371 20.1588 15.8311 20.187 15.8299 20.2173L15.8299 20.2285L15.8299 26.384L15.8299 26.3952C15.8311 26.4254 15.8371 26.4537 15.848 26.48C15.8602 26.5095 15.8785 26.5364 15.9029 26.5608C15.9273 26.5852 15.9543 26.6035 15.9837 26.6157C16.0132 26.6279 16.0452 26.634 16.0797 26.634L18.5951 26.634C18.6296 26.634 18.6616 26.6279 18.691 26.6157C18.7205 26.6035 18.7474 26.5852 18.7719 26.5608C18.7963 26.5364 18.8146 26.5095 18.8268 26.48C18.839 26.4505 18.8451 26.4186 18.8451 26.384L18.8451 20.2285C18.8451 20.1939 18.839 20.1619 18.8268 20.1325C18.8146 20.103 18.7963 20.0761 18.7719 20.0517C18.7474 20.0273 18.7205 20.009 18.691 19.9968C18.6633 19.9853 18.6334 19.9792 18.6012 19.9785ZM14.0861 19.9785L11.5584 19.9785C11.5262 19.9792 11.4963 19.9853 11.4686 19.9968C11.4391 20.009 11.4122 20.0273 11.3878 20.0517C11.3634 20.0761 11.3451 20.103 11.3329 20.1325C11.3207 20.1619 11.3146 20.1939 11.3146 20.2285L11.3146 26.384C11.3146 26.4185 11.3207 26.4505 11.3329 26.48C11.3451 26.5095 11.3634 26.5364 11.3878 26.5608C11.4122 26.5852 11.4391 26.6035 11.4686 26.6157C11.4981 26.6279 11.53 26.634 11.5646 26.634L14.0799 26.634C14.1145 26.634 14.1464 26.6279 14.1759 26.6157C14.2054 26.6035 14.2323 26.5852 14.2567 26.5608C14.2811 26.5364 14.2994 26.5095 14.3116 26.48C14.3225 26.4537 14.3286 26.4254 14.3297 26.3951L14.3297 26.384L14.3297 20.2285L14.3297 20.2173C14.3286 20.187 14.3225 20.1588 14.3116 20.1325C14.2994 20.103 14.2811 20.0761 14.2567 20.0517C14.2323 20.0273 14.2054 20.009 14.1759 19.9968C14.1482 19.9853 14.1183 19.9792 14.0861 19.9785ZM23.6796 17.1994L22.3467 12.4819C22.3246 12.4035 22.2936 12.3302 22.2537 12.2621C22.2307 12.2226 22.2047 12.1849 22.1757 12.1489C22.1402 12.1049 22.1015 12.0648 22.0594 12.0285L22.0593 12.0284C22.0104 11.9863 21.9571 11.9494 21.8992 11.9177C21.8414 11.886 21.7815 11.8608 21.7197 11.8423L21.7196 11.8422C21.6664 11.8263 21.6118 11.8152 21.5556 11.809C21.5098 11.8039 21.464 11.8023 21.4184 11.804L21.4183 11.804C21.3394 11.8071 21.261 11.8204 21.1829 11.8439C21.1141 11.8646 21.0491 11.8922 20.988 11.9266C20.9397 11.9539 20.8939 11.9855 20.8504 12.0213C20.8098 12.0549 20.7723 12.0912 20.7381 12.1304C20.692 12.1831 20.6518 12.2408 20.6173 12.3037C20.5829 12.3665 20.5558 12.4315 20.5362 12.4987L20.5362 12.4987C20.5216 12.5486 20.511 12.5997 20.5046 12.6521C20.4998 12.691 20.4975 12.7298 20.4975 12.7685C20.4975 12.7854 20.4979 12.8022 20.4988 12.819C20.5026 12.889 20.5143 12.9586 20.5338 13.0278L21.8666 17.7453C21.8888 17.8238 21.9198 17.8971 21.9596 17.9652C21.9827 18.0046 22.0087 18.0423 22.0377 18.0783C22.0731 18.1223 22.1119 18.1625 22.154 18.1987C22.2029 18.2409 22.2562 18.2778 22.3141 18.3095C22.3719 18.3412 22.4317 18.3664 22.4935 18.3849L22.4936 18.385L22.4936 18.385C22.5469 18.4009 22.6016 18.412 22.6577 18.4182C22.7036 18.4233 22.7494 18.425 22.795 18.4232L22.7951 18.4232L22.7952 18.4232C22.874 18.4201 22.9524 18.4069 23.0305 18.3834C23.0993 18.3626 23.1642 18.3351 23.2253 18.3006L23.2253 18.3006C23.2736 18.2733 23.3195 18.2418 23.3629 18.2059C23.4036 18.1724 23.441 18.136 23.4752 18.0969L23.4753 18.0968C23.5214 18.0441 23.5616 17.9864 23.5961 17.9235C23.6305 17.8607 23.6575 17.7957 23.6772 17.7286L23.6772 17.7285C23.6918 17.6786 23.7023 17.6275 23.7087 17.5752C23.7135 17.5362 23.7159 17.4974 23.7159 17.4587C23.7159 17.4422 23.7155 17.4256 23.7146 17.409L23.7145 17.4082L23.7145 17.4081C23.7107 17.3381 23.6991 17.2686 23.6796 17.1994ZM7.83871 12.6152L6.52891 17.3401C6.5097 17.4094 6.49838 17.4791 6.49495 17.5492L6.49495 17.5492C6.49421 17.5644 6.49383 17.5797 6.49383 17.5949C6.49383 17.6351 6.49642 17.6754 6.50159 17.7159C6.50828 17.7682 6.51905 17.8193 6.53391 17.8692C6.55389 17.9362 6.58125 18.001 6.61599 18.0636C6.65073 18.1262 6.69125 18.1838 6.73754 18.2362L6.73761 18.2362C6.77204 18.2752 6.80966 18.3114 6.85047 18.3447C6.89404 18.3803 6.94 18.4116 6.98836 18.4385C7.04966 18.4727 7.1148 18.5 7.18379 18.5204C7.26189 18.5435 7.34034 18.5563 7.41913 18.559C7.46487 18.5606 7.51072 18.5587 7.55669 18.5533C7.61275 18.5468 7.66733 18.5355 7.72042 18.5193L7.72047 18.5192C7.78223 18.5004 7.84198 18.4749 7.89971 18.4429C7.95743 18.4109 8.01065 18.3736 8.05935 18.3312C8.10123 18.2948 8.13977 18.2544 8.17497 18.2103C8.20382 18.1741 8.22969 18.1362 8.25258 18.0966C8.29202 18.0283 8.32261 17.9549 8.34437 17.8765L9.65417 13.1515C9.67338 13.0822 9.6847 13.0125 9.68813 12.9424L9.68813 12.9424L9.68814 12.9423C9.68888 12.9271 9.68925 12.9119 9.68925 12.8967C9.68925 12.8565 9.68666 12.8162 9.68149 12.7757C9.6748 12.7234 9.66403 12.6723 9.64916 12.6225C9.62919 12.5554 9.60183 12.4906 9.56709 12.428C9.53236 12.3654 9.49185 12.3079 9.44557 12.2555C9.41111 12.2165 9.37346 12.1803 9.33261 12.1469C9.28903 12.1114 9.24306 12.0801 9.19468 12.0531C9.1334 12.0189 9.06827 11.9916 8.99929 11.9712C8.9212 11.9482 8.84276 11.9353 8.76398 11.9326C8.71823 11.9311 8.67237 11.933 8.62639 11.9383C8.5703 11.9448 8.51569 11.9562 8.46258 11.9724C8.40083 11.9913 8.34109 12.0167 8.28337 12.0488C8.22564 12.0808 8.17242 12.118 8.12373 12.1604L8.1237 12.1604C8.08183 12.1969 8.0433 12.2372 8.00811 12.2813C7.97928 12.3175 7.95343 12.3554 7.93055 12.395L7.93051 12.395C7.89107 12.4633 7.86047 12.5367 7.83871 12.6152Z" fill="rgb(223,164,6)" fill-rule="evenodd" />
</svg>
